<?xml version="1.0" encoding="UTF-8"?>
<svg width="128px" height="128px" viewBox="0 0 128 128" version="1.1" xmlns="http://www.w3.org/2000/svg" xmlns:xlink="http://www.w3.org/1999/xlink">
    <!-- Generator: Sketch 52 (66869) - http://www.bohemiancoding.com/sketch -->
    <title>Artboard</title>
    <desc>Created with Sketch.</desc>
    <g id="Artboard" stroke="none" stroke-width="1" fill="none" fill-rule="evenodd">
        <g id="flogo_RGB_HEX-144-Copy">
            <path d="M120.933333,0 L7.11111111,0 C3.18375289,-2.40481334e-16 4.80962667e-16,3.18375289 0,7.11111111 L0,120.977778 C0.0486613035,124.870379 3.21820589,128.000304 7.11111111,128 L68.4444444,128 L68.4444444,78.4977778 L51.7511111,78.4977778 L51.7511111,59.1288889 L68.3733333,59.1288889 L68.3733333,44.9066667 C68.3733333,28.3733333 78.4711111,19.3688889 93.2622222,19.3688889 C98.2410819,19.35253 103.2172,19.6047483 108.168889,20.1244444 L108.168889,37.3333333 L97.9555556,37.3333333 C89.9555556,37.3333333 88.3733333,41.1466667 88.3733333,46.7377778 L88.3733333,59.1288889 L107.555556,59.1288889 L105.066667,78.4977778 L88.3733333,78.4977778 L88.3733333,128 L120.933333,128 C124.826055,127.975746 127.975746,124.826055 128,120.933333 L128,7.11111111 C128.000076,3.20104426 124.843324,0.0244379171 120.933333,0 Z" id="Path" fill="#4267B2"></path>
            <path d="M88.3733333,128 L88.3733333,78.4977778 L105.066667,78.4977778 L107.555556,59.1288889 L88.3733333,59.1288889 L88.3733333,46.7822222 C88.3733333,41.1911111 89.9288889,37.3777778 97.9555556,37.3777778 L108.124444,37.3777778 L108.124444,20.0888889 C103.172755,19.5691927 98.1966374,19.3169745 93.2177778,19.3333333 C78.4711111,19.3333333 68.3733333,28.3377778 68.3733333,44.8711111 L68.3733333,59.0933333 L51.7511111,59.0933333 L51.7511111,78.4977778 L68.3733333,78.4977778 L68.3733333,128 L88.3733333,128 Z" id="f" fill="#FFFFFF"></path>
        </g>
    </g>
</svg>